<?xml version="1.0" encoding="UTF-8"?>
<svg width="183px" height="45px" viewBox="0 0 183 45" version="1.1" xmlns="http://www.w3.org/2000/svg" xmlns:xlink="http://www.w3.org/1999/xlink">
    <!-- Generator: Sketch 50.2 (55047) - http://www.bohemiancoding.com/sketch -->
    <title>Group 4</title>
    <desc>Created with Sketch.</desc>
    <defs></defs>
    <g id="Page-1" stroke="none" stroke-width="1" fill="none" fill-rule="evenodd">
        <g id="before----closed" transform="translate(-549.000000, -731.000000)" fill="#474747">
            <g id="Group-4" transform="translate(549.000000, 731.000000)">
                <g id="Page-1">
                    <path d="M16.6635533,3.28016304 C16.9867843,2.49104592 16.7809277,2.02154832 15.9322205,2.02154832 L14.7006922,2.02154832 C13.9386614,2.02154832 13.5305597,2.31227568 13.8808771,3.10319856 L15.3471542,6.50163888 L16.6635533,3.28016304 Z M18.6841987,20.149573 L14.8487645,11.0991038 L11.157791,20.149573 L9.72221184,20.149573 L3.63138336,4.56947568 C2.753784,2.3429736 2.0495376,2.02154832 0.17515872,2.02154832 L0,2.02154832 L0,1.46356848 L7.58599776,1.46356848 L7.58599776,2.02154832 L7.087608,2.02154832 C5.71161888,2.02154832 5.18433696,2.63550672 5.68092096,3.86522928 L11.0115245,17.2784146 L14.175216,9.45947376 L11.8024474,3.69187632 C11.2155754,2.25629712 10.337976,2.02154832 8.78682816,2.02154832 L8.78682816,1.46356848 L20.7933264,1.46356848 L20.7933264,2.02154832 C18.9767318,2.02154832 18.3609677,2.460348 17.8932758,3.57269616 L16.0207027,8.14126896 L19.856137,17.2784146 L25.0404739,3.69187632 C25.5081658,2.49104592 25.1271504,2.07933264 22.9891306,2.02154832 L22.9891306,1.46356848 L29.0510669,1.46356848 L29.0510669,2.02154832 C27.2651702,2.02154832 26.8570685,2.37186576 25.9758576,4.68504432 L20.08908,20.149573 L18.6841987,20.149573 Z" id="Fill-1"></path>
                    <path d="M35.0402311,12.1220669 C34.8596551,10.2783859 34.0055306,8.69834592 31.8386186,8.69834592 C30.4499892,8.69834592 28.7941072,9.9858528 28.5972794,12.1220669 L35.0402311,12.1220669 Z M28.5358836,12.8840976 C28.5286605,13.1495443 28.5286605,13.2615014 28.5286605,13.4709696 C28.5286605,16.5172867 30.6648746,18.5668243 32.9780532,18.5668243 C34.4443303,18.5668243 35.5855706,17.9799523 36.6979188,16.6635533 L37.0211498,17.0156765 C35.7914272,18.5668243 33.9459405,20.0312957 31.8079207,20.0312957 C28.9367623,20.0312957 26.712066,17.425584 26.712066,14.0271437 C26.712066,10.924848 28.7904957,7.75935072 32.3640948,7.75935072 C36.9398906,7.75935072 37.2667332,12.5103053 37.2667332,12.8840976 L28.5358836,12.8840976 Z" id="Fill-2"></path>
                    <path d="M72.2276914,12.1220669 C72.0489211,10.2783859 71.1929909,8.69834592 69.0260789,8.69834592 C67.6374494,8.69834592 65.9833733,9.9858528 65.7865454,12.1220669 L72.2276914,12.1220669 Z M65.7251496,12.8840976 C65.7179266,13.1495443 65.7161208,13.2615014 65.7161208,13.4709696 C65.7161208,16.5172867 67.8523349,18.5668243 70.1655134,18.5668243 C71.6317906,18.5668243 72.7748366,17.9799523 73.8871848,16.6635533 L74.2104158,17.0156765 C72.9788875,18.5668243 71.1352066,20.0312957 68.995381,20.0312957 C66.1260283,20.0312957 63.8995262,17.425584 63.8995262,14.0271437 C63.8995262,10.924848 65.9797618,7.75935072 69.551555,7.75935072 C74.1291566,7.75935072 74.4559992,12.5103053 74.4559992,12.8840976 L65.7251496,12.8840976 Z" id="Fill-3"></path>
                    <path d="M108.073111,12.1220669 C107.894341,10.2783859 107.040216,8.69834592 104.871498,8.69834592 C103.484675,8.69834592 101.828793,9.9858528 101.631965,12.1220669 L108.073111,12.1220669 Z M101.570569,12.8840976 C101.563346,13.1495443 101.56154,13.2615014 101.56154,13.4709696 C101.56154,16.5172867 103.697754,18.5668243 106.010933,18.5668243 C107.47721,18.5668243 108.620256,17.9799523 109.732604,16.6635533 L110.055835,17.0156765 C108.824307,18.5668243 106.980626,20.0312957 104.8408,20.0312957 C101.971448,20.0312957 99.7449457,17.425584 99.7449457,14.0271437 C99.7449457,10.924848 101.825181,7.75935072 105.39878,7.75935072 C109.974576,7.75935072 110.301419,12.5103053 110.301419,12.8840976 L101.570569,12.8840976 Z" id="Fill-4"></path>
                    <path d="M158.856499,12.1220669 C158.677729,10.2783859 157.823605,8.69834592 155.654887,8.69834592 C154.268063,8.69834592 152.612181,9.9858528 152.415353,12.1220669 L158.856499,12.1220669 Z M152.353958,12.8840976 C152.346734,13.1495443 152.344929,13.2615014 152.344929,13.4709696 C152.344929,16.5172867 154.481143,18.5668243 156.794321,18.5668243 C158.260598,18.5668243 159.403645,17.9799523 160.515993,16.6635533 L160.839224,17.0156765 C159.607695,18.5668243 157.764014,20.0312957 155.624189,20.0312957 C152.754836,20.0312957 150.528334,17.425584 150.528334,14.0271437 C150.528334,10.924848 152.60857,7.75935072 156.182169,7.75935072 C160.757965,7.75935072 161.084807,12.5103053 161.084807,12.8840976 L152.353958,12.8840976 Z" id="Fill-5"></path>
                    <path d="M80.1701461,17.3065844 C80.1701461,18.8324516 80.5800537,19.123179 82.2196837,19.123179 L82.2196837,19.6793531 L76.1270495,19.6793531 L76.1270495,19.123179 C77.8262697,19.123179 78.207285,18.362954 78.207285,16.8695905 L78.207285,11.1290795 C78.207285,9.98603338 78.0303205,9.72239242 77.3567721,9.63571594 L76.2173375,9.48944938 L76.2173375,8.99105962 L79.7295407,7.7595313 L80.1701461,7.7595313 L80.1701461,10.1052135 C82.2774681,8.61185002 84.2096313,7.7595313 85.3815695,7.7595313 C86.8171487,7.7595313 87.8717125,8.66963434 88.1642457,10.1052135 C90.1271068,8.87368522 91.9130034,7.7595313 93.3485826,7.7595313 C95.4559045,7.7595313 96.2757196,9.37026922 96.2757196,12.1818375 C96.2757196,14.0580222 96.2757196,16.0190775 96.1890431,17.8049742 C96.1890431,18.4207383 96.5393605,19.123179 97.7383852,19.123179 L98.6773804,19.123179 L98.6773804,19.6793531 L92.0881621,19.6793531 L92.0881621,19.123179 L92.3518031,19.123179 C93.2023161,19.123179 93.5815257,18.9769124 93.8451666,18.7132715 C94.2839663,18.2744718 94.3128585,16.5770574 94.3128585,14.5564119 L94.3128585,12.2721255 C94.3128585,10.0149255 93.5526335,8.9332753 92.1170543,8.9332753 C91.2105628,8.9332753 90.0386245,9.37026922 88.22203,10.5729054 L88.22203,17.3065844 C88.22203,18.7728615 88.5741532,19.123179 90.0386245,19.123179 L90.0386245,19.6793531 L84.0344725,19.6793531 L84.0344725,19.123179 C85.6741026,19.123179 86.2609746,18.5381127 86.2609746,16.8695905 L86.2609746,11.4523105 C86.2609746,9.60501802 85.1179285,8.9332753 84.0922569,8.9332753 C83.2742476,8.9332753 82.1618994,9.3124849 80.1701461,10.6306897 L80.1701461,17.3065844 Z" id="Fill-6"></path>
                    <path d="M116.059626,17.3065844 C116.059626,18.8324516 116.471339,19.123179 118.11097,19.123179 L118.11097,19.6793531 L112.020141,19.6793531 L112.020141,19.123179 C113.717555,19.123179 114.096765,18.362954 114.096765,16.8695905 L114.096765,11.1290795 C114.096765,9.98603338 113.921606,9.72239242 113.248058,9.63571594 L112.106818,9.48944938 L112.106818,8.99105962 L115.622632,7.7595313 L116.059626,7.7595313 L116.059626,10.1052135 C118.168754,8.61185002 120.100917,7.7595313 121.274661,7.7595313 C122.708434,7.7595313 123.762998,8.66963434 124.055531,10.1052135 C126.018393,8.87368522 127.802483,7.7595313 129.238063,7.7595313 C131.34719,7.7595313 132.167005,9.37026922 132.167005,12.1818375 C132.167005,14.0580222 132.167005,16.0190775 132.078523,17.8049742 C132.078523,18.4207383 132.428841,19.123179 133.631477,19.123179 L134.568666,19.123179 L134.568666,19.6793531 L127.979448,19.6793531 L127.979448,19.123179 L128.243089,19.123179 C129.091796,19.123179 129.472811,18.9769124 129.736452,18.7132715 C130.175252,18.2744718 130.20595,16.5770574 130.20595,14.5564119 L130.20595,12.2721255 C130.20595,10.0149255 129.442114,8.9332753 128.00834,8.9332753 C127.100043,8.9332753 125.92991,9.37026922 124.113316,10.5729054 L124.113316,17.3065844 C124.113316,18.7728615 124.463633,19.123179 125.92991,19.123179 L125.92991,19.6793531 L119.927564,19.6793531 L119.927564,19.123179 C121.567194,19.123179 122.150455,18.5381127 122.150455,16.8695905 L122.150455,11.4523105 C122.150455,9.60501802 121.009214,8.9332753 119.985348,8.9332753 C119.165533,8.9332753 118.051379,9.3124849 116.059626,10.6306897 L116.059626,17.3065844 Z" id="Fill-7"></path>
                    <path d="M138.917297,16.1073792 C138.917297,17.5718506 139.883379,19.1825885 142.109881,19.1825885 C144.511542,19.1825885 146.180064,17.1601373 146.180064,14.2330003 C146.180064,11.3040576 144.450146,9.10825344 142.196558,9.10825344 C141.28826,9.10825344 140.235502,9.54705312 138.917297,10.4842426 L138.917297,16.1073792 Z M138.917297,9.81069408 C140.995727,8.31913632 142.256148,7.75935072 143.339604,7.75935072 C145.945315,7.75935072 148.142925,10.337976 148.142925,13.4131853 C148.142925,17.1601373 145.18509,20.0312957 141.28826,20.0312957 C139.971861,20.0312957 138.828815,19.8272448 136.954436,19.4733158 L136.954436,3.60068544 C136.954436,2.07842976 136.865954,1.96105536 135.755412,1.8147888 L134.935597,1.69922016 L134.935597,1.2008304 L138.4478,0 L138.917297,0 L138.917297,9.81069408 Z" id="Fill-8"></path>
                    <path d="M166.795523,17.5427778 C166.795523,18.7436082 167.234323,19.1228178 168.7006,19.1228178 L169.811142,19.1228178 L169.811142,19.6807977 L162.869801,19.6807977 L162.869801,19.1228178 C164.363164,19.0939257 164.832662,18.4799673 164.832662,16.9270137 L164.832662,10.1626367 L162.869801,9.4583903 L162.869801,8.9618063 L166.210457,7.79167382 L166.795523,7.79167382 L166.795523,10.8921637 L166.853307,10.8921637 C168.317779,8.4923087 168.669902,7.93794038 169.635984,7.93794038 C169.988107,7.93794038 170.074783,7.96502678 170.630957,8.19977558 C170.925296,8.31895574 171.450772,8.43452438 172.156825,8.63857526 L171.450772,10.3955797 C171.013778,10.3377954 170.455799,10.1915289 169.90143,9.9278879 C169.578199,9.78162134 169.227882,9.63535478 168.875759,9.63535478 C168.346671,9.63535478 168.027051,9.98567222 167.734518,10.3955797 C167.351697,10.9246674 167.030272,11.4212514 166.795523,11.8618569 L166.795523,17.5427778 Z" id="Fill-9"></path>
                    <path d="M52.6023305,12.1327209 L51.4303923,12.1327209 L51.4303923,1.81460822 C53.0411302,1.78752182 54.8866169,1.72793174 56.293304,2.40148022 C58.2561651,3.33866966 58.6353747,5.9191007 58.6353747,7.08923318 C58.6353747,9.04487126 57.873344,11.2244236 55.8526985,11.8094898 C54.8270268,12.1038287 53.8916432,12.1327209 52.6023305,12.1327209 M61.4306912,17.9165701 L57.5898396,12.2212031 L57.5302496,12.1273036 C61.1851078,10.4750332 61.4180508,7.74833558 61.4180508,6.9574127 C61.4180508,4.52505398 59.6899385,2.69401334 58.4891081,2.10714134 C57.2304934,1.49318294 55.9104828,1.23134774 53.5973043,1.23134774 C51.108967,1.23134774 48.618824,1.34691638 46.1593788,1.55277302 L46.1593788,2.08005494 C48.5610396,2.08005494 49.0016451,2.63442326 49.0016451,4.10070038 L49.0016451,15.8724498 C49.0016451,18.391485 49.0016451,19.1535157 46.188271,19.1535157 L46.188271,19.6807977 L54.5633859,19.6807977 L54.5633859,19.1535157 C51.6362489,19.1535157 51.4303923,18.4799673 51.4303923,15.9320399 L51.4303923,12.6600028 L55.1466464,12.6600028 C55.352503,12.974205 55.5005753,13.2071481 56.0657782,14.0811359 C58.4566044,17.9147644 59.3811536,19.1607388 61.2266403,21.1145711 C63.0739328,23.0702092 66.2610992,24.6737241 69.8997056,24.395637 L69.8997056,23.8683551 C66.5698841,23.8683551 64.6124403,22.0987103 61.4306912,17.9165701" id="Fill-10"></path>
                    <path d="M39.4401459,39.4535085 C39.6604486,39.5094871 39.7724057,39.5094871 39.9385356,39.5094871 C41.545662,39.5094871 42.486463,38.456729 42.486463,36.8514084 C42.486463,35.9629744 42.042246,35.3526276 41.3235536,35.3526276 C40.8811424,35.3526276 40.6048611,35.5205632 40.1588384,35.9629744 L39.4401459,39.4535085 Z M40.1588384,35.4645847 C40.6590339,35.0763463 41.2115964,34.7458922 41.7659648,34.7458922 C42.6525929,34.7458922 43.3730912,35.5765418 43.3730912,36.5733213 C43.3730912,37.9583392 42.1000304,39.8417469 39.7164272,39.8417469 C39.3841673,39.8417469 38.9959289,39.7875741 38.6094963,39.7875741 L40.1046656,32.2521376 C40.2166227,31.8097264 40.048687,31.587618 39.3281888,31.587618 L39.3841673,31.3655095 L40.8251638,30.9772711 L41.1014451,30.9772711 L40.1588384,35.4645847 Z" id="Fill-11"></path>
                    <path d="M48.8021086,35.1877617 C48.2477403,35.2437402 48.1375889,35.4640429 47.8613076,36.0184113 L45.1472504,40.9481361 C44.5910763,41.9467213 44.3707736,42.2230026 43.9825352,42.611241 C43.2638427,43.3317393 42.4313873,43.7759562 41.6549105,43.7759562 C41.5447592,43.7759562 41.4346078,43.7199777 41.2666721,43.7199777 L41.5447592,42.9435009 C43.1518856,42.9435009 44.2046436,41.9467213 45.1472504,40.2294436 L44.8131848,36.1285626 C44.759012,35.2437402 44.6470548,35.1335889 44.2046436,35.1335889 L44.2588164,34.9114804 L46.3643326,34.9114804 L46.308354,35.1335889 C45.5896616,35.1335889 45.4777044,35.2997188 45.533683,35.9642385 L45.7557915,38.954577 L45.81177,38.954577 L47.3611121,36.0743898 C47.5290478,35.7981085 47.6373934,35.5760001 47.6373934,35.4098701 C47.6373934,35.1877617 47.5290478,35.1335889 47.1949822,35.1335889 L47.2509608,34.9114804 L48.8021086,34.9114804 L48.8021086,35.1877617 Z" id="Fill-12"></path>
                    <path d="M77.0366108,36.0413444 C76.1120617,36.1569131 75.5360243,36.4277771 75.1513974,36.8124039 C74.8426124,37.1211889 74.6891228,37.5058158 74.6891228,37.8886369 C74.6891228,38.5820487 75.1893183,39.08405 75.8050825,39.08405 C76.1897094,39.08405 76.5743363,38.9305604 76.7675526,38.6994231 C76.8452003,38.6217755 76.9228479,38.4682859 76.9228479,38.3129905 L77.0366108,36.0413444 Z M78.6148451,40.160283 C77.8455913,40.160283 77.1521795,39.6600875 76.9607689,38.8908337 C76.5743363,39.5842455 75.8448092,40.160283 74.8823391,40.160283 C73.8043004,40.160283 72.8797513,39.3133815 72.8797513,38.2371486 C72.8797513,36.7347563 74.3026902,35.6567175 76.9986899,35.6187966 L76.9986899,35.2341697 C77.0366108,34.156131 76.4208467,33.5024459 75.3446137,33.5024459 C74.5735542,33.5024459 73.7645737,34.0026414 73.2264572,34.6563265 C73.1867305,34.6960532 72.9555932,34.4649159 72.9555932,34.4251892 C73.6490051,33.0401713 74.9202601,32.2691118 76.2294361,32.2691118 C77.7300227,32.2691118 78.8062556,33.3489563 78.7683347,35.156522 L78.6545718,38.1595009 C78.6545718,38.8529127 78.961551,39.1616977 79.3082569,39.1616977 C79.6928838,39.1616977 79.961942,38.8529127 80.1154316,38.4285591 C80.1154316,38.3906382 80.3465689,38.5044011 80.3465689,38.5441278 C80.3465689,39.5842455 79.5773151,40.160283 78.6148451,40.160283 L78.6148451,40.160283 Z" id="Fill-13"></path>
                    <path d="M88.1990968,39.8908636 L86.158588,39.8908636 C86.1224728,39.8908636 86.1224728,39.5062367 86.158588,39.5062367 C87.0072952,39.3924738 87.1210581,39.3148261 87.1210581,37.6589442 L87.1210581,35.3493772 C87.1210581,34.3092594 86.5070997,33.5797324 85.6204716,33.5797324 C85.0047074,33.5797324 84.4268642,33.8867116 84.157806,34.2713385 C83.9645896,34.5024757 83.8508268,34.9250236 83.8508268,35.4649458 L83.8508268,37.6589442 C83.8508268,39.3148261 84.0422373,39.3924738 84.8891388,39.5062367 C84.8891388,39.5062367 84.9270597,39.8908636 84.8891388,39.8908636 L82.9660044,39.8908636 L80.9634165,39.8908636 C80.9254956,39.8908636 80.9254956,39.5062367 80.9254956,39.5062367 C81.8482389,39.3527471 81.9638076,39.3148261 81.9638076,37.6589442 L81.9638076,34.8491817 C81.9638076,33.1553788 81.7705912,33.0795369 80.7702002,32.9242415 C80.6943583,32.9242415 80.7322792,32.5396146 80.7702002,32.5396146 L83.6955314,32.5396146 L83.6955314,34.2334175 L83.7334524,34.2334175 C84.3889432,33.0018892 85.3893343,32.2687506 86.6208626,32.2687506 C88.0076863,32.2687506 89.0839192,33.3485951 89.0839192,35.1182399 L89.0839192,37.6192175 C89.0839192,39.2750994 89.2392146,39.3527471 90.161958,39.4683157 C90.2396056,39.4683157 90.1998789,39.8529426 90.161958,39.8529426 C89.5859205,39.8908636 88.7390191,39.8908636 88.1990968,39.8908636" id="Fill-14"></path>
                    <path d="M94.3975486,40.1606441 C92.0879816,40.1606441 90.587395,38.3512726 90.587395,36.2728428 C90.587395,34.0391177 92.0879816,32.2694729 94.5510382,32.2694729 C95.7067246,32.2694729 96.282762,32.6559056 96.629468,32.6559056 C96.7829576,32.6559056 96.9364472,32.5385312 97.0140948,32.3471206 C97.0140948,32.3073939 97.4763694,32.3073939 97.4763694,32.3471206 L97.4763694,35.1189622 C97.4763694,35.1568832 97.0140948,35.1568832 97.0140948,35.1189622 C96.3983307,33.8477072 95.5514292,32.7696684 94.5510382,32.7696684 C93.3177041,32.7696684 92.5881771,34.0788444 92.5881771,35.888216 C92.5881771,37.8131561 93.5885681,39.0826054 94.973586,39.0826054 C95.8981352,39.0826054 96.9364472,38.4289203 97.3608008,37.6975875 C97.3987217,37.6199398 97.7075067,37.7752352 97.7075067,37.8510771 C97.2073112,39.1602531 95.8981352,40.1606441 94.3975486,40.1606441" id="Fill-15"></path>
                    <path d="M103.750844,35.2724518 L103.750844,34.7325296 C103.750844,33.540728 103.173,32.8473161 102.439862,32.8473161 C101.518924,32.8473161 100.825512,33.8477072 100.670217,35.2724518 L103.750844,35.2724518 Z M100.670217,36.1572742 C100.670217,37.8131561 101.594766,39.0826054 103.173,39.0826054 C104.095744,39.0826054 105.020293,38.468647 105.520488,37.6975875 C105.520488,37.6578608 105.827468,37.7752352 105.827468,37.8510771 C105.40492,39.1602531 104.018096,40.1606441 102.479589,40.1606441 C100.054453,40.1606441 98.6315141,38.3909993 98.6315141,36.2728428 C98.6315141,34.1564921 100.132101,32.2694729 102.670999,32.2694729 C104.597745,32.2694729 105.867194,33.540728 105.982763,35.2724518 L105.982763,35.812374 L100.747865,35.812374 C100.670217,35.888216 100.670217,36.0796265 100.670217,36.1572742 L100.670217,36.1572742 Z" id="Fill-16"></path>
                    <path d="M109.831199,40.1606441 C108.639397,40.1606441 107.599279,39.8518592 107.252573,39.6207219 C107.214653,39.5846067 107.099084,38.5824099 107.099084,37.5820188 C107.099084,37.5440979 107.561358,37.5043712 107.561358,37.5820188 C108.177123,38.9291158 109.061945,39.6983696 110.024415,39.6983696 C110.833396,39.6983696 111.409433,39.2758217 111.409433,38.6203308 C111.409433,37.8510771 110.484884,37.5043712 109.563946,37.0818233 C108.446181,36.6592755 107.174926,36.0796265 107.174926,34.6566876 C107.174926,33.540728 108.139202,32.3850416 109.946767,32.3850416 C110.716021,32.3850416 111.218022,32.6920208 111.564728,32.6920208 C111.718218,32.6920208 111.871708,32.5782579 111.987276,32.3850416 C111.987276,32.3471206 112.449551,32.3471206 112.449551,32.3850416 L112.449551,34.9257459 C112.449551,34.9636668 111.987276,34.9636668 111.987276,34.9257459 C111.373318,33.7718652 110.640179,32.9628848 109.755357,32.9628848 C108.946376,32.9628848 108.561749,33.5010012 108.561749,33.9253548 C108.561749,34.6964144 109.446572,35.0033936 110.371121,35.3862147 C111.487081,35.8484892 112.796257,36.4281382 112.796257,37.888998 C112.796257,39.1223321 111.64057,40.1606441 109.831199,40.1606441" id="Fill-17"></path>
                    <path d="M113.642075,33.3485951 C113.528312,33.3485951 113.488585,33.0398101 113.604154,32.9621625 C114.413134,32.2326354 115.760231,30.9993013 116.491564,30.2300476 C116.529485,30.1921266 116.798543,30.2300476 116.798543,30.3058895 L116.798543,32.5775356 L119.416895,32.5775356 C119.492737,32.5775356 119.492737,33.3106741 119.416895,33.3106741 L116.798543,33.3106741 L116.798543,37.5831023 C116.798543,38.5437666 117.376386,38.9663145 117.99215,38.9663145 C118.454425,38.9663145 118.954621,38.5816876 119.185758,38.1212188 C119.185758,38.0814921 119.492737,38.2367874 119.492737,38.2765141 C119.185758,39.3148261 118.185367,40.1220009 117.067601,40.1220009 C115.873994,40.1220009 114.91333,39.3527471 114.91333,37.8503548 L114.91333,33.3485951 L113.642075,33.3485951 Z" id="Fill-18"></path>
                    <path d="M125.806216,34.5794011 C125.575078,34.5794011 124.999041,33.8859893 124.572882,33.8859893 C124.381471,33.8859893 124.150334,34.0033637 123.958923,34.1947742 C123.651944,34.5017534 123.38108,35.2330862 123.38108,35.8488504 L123.38108,37.6979486 C123.38108,39.3917515 123.651944,39.4296725 124.536766,39.5452411 C124.536766,39.5452411 124.572882,39.929868 124.536766,39.929868 L122.496258,39.929868 L120.455749,39.929868 C120.417828,39.929868 120.417828,39.5452411 120.455749,39.5452411 C121.380298,39.3917515 121.494061,39.3538306 121.494061,37.6979486 L121.494061,34.8881861 C121.494061,33.2323042 121.30265,33.1167355 120.302259,32.9614402 C120.224612,32.9614402 120.264338,32.578619 120.302259,32.578619 L123.265511,32.578619 L123.265511,34.5017534 L123.343159,34.5017534 C123.420807,34.2706162 123.574296,34.0033637 123.688059,33.7324997 C124.227982,32.8476773 124.881667,32.307755 125.575078,32.307755 C126.228764,32.307755 126.768686,32.8097563 126.768686,33.3478728 C126.806607,33.963637 125.997626,34.5794011 125.806216,34.5794011" id="Fill-19"></path>
                    <path d="M134.813888,33.3097713 C134.505103,33.6167505 134.273966,34.2343204 133.773771,35.5814173 L131.270987,42.0081172 C130.386165,44.2797633 129.57899,44.7420378 128.500951,44.7420378 C127.885187,44.7420378 127.191775,44.4332529 127.191775,44.2418423 C127.153854,43.9330573 127.576402,42.8170977 127.80754,42.8170977 C127.885187,42.8170977 128.807931,43.2396455 129.270205,43.2396455 C129.925696,43.2396455 130.348244,42.8170977 130.69495,41.8925485 L131.157224,40.6610202 C131.003735,40.0452561 129.154637,36.0039652 128.923499,35.4640429 C128.461225,34.38781 128.154245,33.5409085 127.847266,33.2321236 C127.65405,33.040713 127.462639,32.9630653 126.922717,32.8872234 C126.88299,32.8872234 126.88299,32.5007908 126.922717,32.5007908 C127.422913,32.5007908 128.461225,32.5387117 129.039068,32.5387117 C129.616911,32.5387117 130.617302,32.5007908 131.117498,32.5007908 C131.157224,32.5007908 131.157224,32.8872234 131.117498,32.8872234 C129.961811,33.040713 130.079186,33.4235341 130.69495,34.9638474 L132.042047,38.2376903 L133.120085,35.426122 C133.502907,34.4654577 133.697929,33.8858087 133.697929,33.5409085 C133.697929,33.1183607 133.427065,32.9630653 132.618084,32.9233386 C132.581969,32.9233386 132.581969,32.5007908 132.618084,32.5007908 C133.158006,32.5007908 133.851418,32.5387117 134.313693,32.5387117 C134.658593,32.5387117 135.005299,32.5007908 135.66079,32.5007908 C135.698711,32.5007908 135.736632,32.9233386 135.66079,32.9233386 C135.236436,32.9630653 135.045026,33.078634 134.813888,33.3097713" id="Fill-20"></path>
                    <path d="M64.142401,32.0771595 C62.795304,30.6144939 61.448207,30.8456312 61.2170698,30.8853579 C61.3308326,30.9214731 61.448207,33.4639832 62.8729517,34.8110801 C63.833616,35.6959025 65.7964771,35.3871176 65.7964771,35.3871176 C65.7964771,35.3871176 65.451577,33.5019041 64.142401,32.0771595 M65.7603619,37.0429995 C65.3360083,37.0429995 63.6024787,37.1964891 62.4485981,38.6212337 C61.2549907,40.1218203 61.2947174,41.3154276 61.0238534,41.5862916 C61.2549907,41.6621336 63.6801264,41.8932708 64.7184384,40.3150366 C65.7206352,38.852371 65.7603619,37.2741368 65.7603619,37.0429995 M55.2129178,36.0046875 C55.481976,36.0408027 56.4065251,37.23441 58.0606013,37.3878996 C59.8699728,37.5829217 60.485737,36.6583726 60.5236579,36.6583726 C60.5236579,36.542804 59.0627981,34.9645697 57.4448371,34.9645697 C56.3288774,35.0024907 55.2129178,36.0046875 55.2129178,36.0046875 M61.7931072,36.8118622 C61.756992,36.8515889 60.2545997,38.852371 56.7135043,38.3124488 C53.8658208,37.8501742 52.825703,36.27194 52.6324867,36.2358248 C52.863624,35.9270398 55.0197014,34.195316 57.5224848,34.2332369 C59.9855414,34.3090788 61.7931072,35.6959025 61.7931072,35.6959025 L63.3713414,35.6959025 C62.1018922,35.3112756 60.5633846,34.6178638 59.8699728,33.0793563 C59.2542086,31.6546116 59.3679715,30.8077102 59.0989133,29.6141028 C59.0989133,29.6141028 61.9484026,29.3829656 64.142401,30.8077102 C66.143183,32.1150804 67.2609485,35.5803339 67.2988694,35.6959025 L68.5303978,35.6959025 L68.2595338,29.5382609 L69.8016528,29.5743761 C69.5307888,31.1923371 69.8774947,42.7401723 69.8016528,42.7401723 C69.6463574,42.7780932 68.3371814,42.8557409 68.2234186,42.546956 C68.2234186,42.546956 68.5303978,36.8895099 68.5683187,36.7739412 L67.3747114,36.7739412 C67.3747114,36.8515889 67.2609485,40.0459784 64.8358128,41.7397812 C62.4106771,43.4317784 58.9075027,42.9333886 58.9075027,42.9333886 C59.3300506,42.2778977 58.9075027,41.5862916 60.139031,39.6992724 C61.5619699,37.543195 63.4489891,36.7739412 63.4110682,36.7739412 C63.2954995,36.8118622 61.8328339,36.8118622 61.7931072,36.8118622" id="Fill-21"></path>
                    <path d="M137.129234,32.9534948 L137.223133,32.9534948 C137.253831,32.9534948 137.286335,32.9498833 137.315227,32.9408545 C137.344119,32.9336315 137.367594,32.9191854 137.385652,32.9011278 C137.403709,32.8794587 137.412738,32.8487607 137.412738,32.8072283 C137.412738,32.7747246 137.407321,32.7512497 137.394681,32.7313863 C137.383846,32.7133287 137.367594,32.6988827 137.347731,32.6898539 C137.327867,32.6808251 137.308004,32.673602 137.282723,32.6717963 C137.259249,32.6681847 137.235774,32.666379 137.210493,32.666379 L136.979356,32.666379 L136.979356,32.9534948 L137.129234,32.9534948 Z M137.512055,33.4049348 L137.392875,33.4049348 L137.161738,33.0329483 L136.979356,33.0329483 L136.979356,33.4049348 L136.878233,33.4049348 L136.878233,32.5959543 L137.233968,32.5959543 C137.340508,32.5959543 137.414544,32.6158177 137.457882,32.6519329 C137.499415,32.6898539 137.521084,32.7440267 137.521084,32.8108398 C137.521084,32.8487607 137.513861,32.8830702 137.50122,32.9119623 C137.48858,32.9390487 137.470522,32.9625236 137.448853,32.9805812 C137.425378,32.9950273 137.396486,33.0094734 137.367594,33.0166964 C137.33509,33.0257252 137.302587,33.0311425 137.266472,33.0329483 L137.512055,33.4049348 Z M137.149097,33.6324606 C137.237579,33.6324606 137.317033,33.614403 137.392875,33.5837051 C137.466911,33.5512014 137.533724,33.5060574 137.586091,33.4482731 C137.638458,33.3922945 137.681796,33.3254814 137.712494,33.2478337 C137.743192,33.1719918 137.759444,33.0889268 137.759444,32.9986388 C137.759444,32.9119623 137.743192,32.8288974 137.712494,32.7530555 C137.681796,32.6754078 137.638458,32.6104004 137.586091,32.5526161 C137.533724,32.4966375 137.466911,32.4532993 137.392875,32.4189899 C137.317033,32.3882919 137.237579,32.3720401 137.149097,32.3720401 C137.060615,32.3720401 136.979356,32.3882919 136.903514,32.4189899 C136.827672,32.4532993 136.76447,32.4966375 136.710298,32.5526161 C136.654319,32.6104004 136.612786,32.6754078 136.582089,32.7530555 C136.551391,32.8288974 136.535139,32.9119623 136.535139,32.9986388 C136.535139,33.0889268 136.551391,33.1719918 136.582089,33.2478337 C136.612786,33.3254814 136.654319,33.3922945 136.710298,33.4482731 C136.76447,33.5060574 136.827672,33.5512014 136.903514,33.5837051 C136.979356,33.614403 137.060615,33.6324606 137.149097,33.6324606 L137.149097,33.6324606 Z M137.149097,33.7281659 C137.047975,33.7281659 136.952269,33.7083025 136.865593,33.6685758 C136.777111,33.6324606 136.701269,33.5800935 136.634456,33.5150862 C136.567642,33.4482731 136.517081,33.3706254 136.47916,33.2839489 C136.439434,33.1954667 136.41957,33.0997614 136.41957,32.9986388 C136.41957,32.9011278 136.439434,32.8054225 136.47916,32.7169403 C136.517081,32.628458 136.567642,32.5526161 136.634456,32.4876087 C136.701269,32.4226014 136.777111,32.3720401 136.865593,32.3323134 C136.952269,32.2943924 137.047975,32.2745291 137.149097,32.2745291 C137.248414,32.2745291 137.342314,32.2943924 137.430796,32.3323134 C137.519278,32.3720401 137.596926,32.4226014 137.661933,32.4876087 C137.72694,32.5526161 137.779307,32.628458 137.817228,32.7169403 C137.853344,32.8054225 137.873207,32.9011278 137.873207,32.9986388 C137.873207,33.0997614 137.853344,33.1954667 137.817228,33.2839489 C137.779307,33.3706254 137.72694,33.4482731 137.661933,33.5150862 C137.596926,33.5800935 137.519278,33.6324606 137.430796,33.6685758 C137.342314,33.7083025 137.248414,33.7281659 137.149097,33.7281659 L137.149097,33.7281659 Z" id="Fill-22"></path>
                </g>
                <text id="tm" font-family="Bembo-Expert, Bembo" font-size="7.524" font-weight="normal" letter-spacing="-0.313499928">
                    <tspan x="174.294923" y="11.0192">t</tspan>
                    <tspan x="177.510179" y="11.0192" letter-spacing="-0.261249977">m</tspan>
                </text>
            </g>
        </g>
    </g>
</svg>